# Blender 4.2.0
# www.blender.org
mtllib Aura.mtl
o 球
v 0.000000 0.986214 0.923880
v 0.000000 0.441065 1.000000
v 0.000000 0.106308 0.923880
v 0.000000 -0.016746 0.382683
v -0.146447 2.230271 0.353553
v -0.270598 1.653340 0.653281
v -0.353553 0.986214 0.853553
v -0.382683 0.441065 0.923880
v -0.353553 0.106308 0.853553
v -0.270598 -0.026939 0.653281
v -0.146447 -0.016745 0.353553
v -0.270598 2.230271 0.270598
v -0.500000 1.653340 0.500000
v -0.653282 0.986215 0.653281
v -0.707107 0.441065 0.707107
v -0.653282 0.106308 0.653281
v -0.500000 -0.026939 0.500000
v -0.270598 -0.016745 0.270598
v -0.353553 2.230271 0.146447
v -0.653281 1.653340 0.270598
v -0.853553 0.986214 0.353553
v -0.923880 0.441065 0.382683
v -0.853553 0.106308 0.353553
v -0.653281 -0.026939 0.270598
v -0.353553 -0.016745 0.146447
v -0.382683 2.230271 -0.000000
v -0.707107 1.653340 -0.000000
v -0.923880 0.986214 -0.000000
v -1.000000 0.441065 -0.000000
v -0.923880 0.106308 -0.000000
v -0.707107 -0.026939 -0.000000
v -0.382683 -0.016746 -0.000000
v -0.353553 2.230271 -0.146447
v -0.653281 1.653340 -0.270598
v -0.853553 0.986214 -0.353554
v -0.923879 0.441065 -0.382684
v -0.853553 0.106308 -0.353554
v -0.653281 -0.026939 -0.270598
v -0.353553 -0.016746 -0.146447
v -0.270598 2.230271 -0.270598
v -0.500000 1.653340 -0.500000
v -0.653281 0.986215 -0.653282
v -0.707107 0.441065 -0.707107
v -0.653281 0.106308 -0.653282
v -0.500000 -0.026939 -0.500000
v -0.270598 -0.016745 -0.270598
v -0.146447 2.230271 -0.353553
v -0.270598 1.653340 -0.653281
v -0.353553 0.986215 -0.853553
v -0.382683 0.441065 -0.923880
v -0.353553 0.106308 -0.853553
v -0.270598 -0.026939 -0.653281
v -0.146447 -0.016745 -0.353553
v 0.000000 2.230271 -0.382683
v 0.000000 1.653340 -0.707107
v 0.000000 0.986215 -0.923879
v 0.000000 0.441065 -1.000000
v 0.000000 0.106309 -0.923879
v 0.000000 -0.026939 -0.707107
v 0.000000 -0.016746 -0.382683
v 0.000000 0.020202 0.000000
v 0.000000 2.467584 0.000000
v 0.146447 2.230271 -0.353553
v 0.270598 1.653340 -0.653281
v 0.353554 0.986215 -0.853553
v 0.382684 0.441065 -0.923879
v 0.353554 0.106308 -0.853553
v 0.270598 -0.026939 -0.653281
v 0.146447 -0.016745 -0.353553
v 0.270598 2.230271 -0.270598
v 0.500000 1.653340 -0.500000
v 0.653282 0.986215 -0.653281
v 0.707107 0.441065 -0.707106
v 0.653282 0.106308 -0.653281
v 0.500000 -0.026939 -0.500000
v 0.270598 -0.016745 -0.270598
v 0.353553 2.230271 -0.146446
v 0.653281 1.653340 -0.270598
v 0.853553 0.986215 -0.353553
v 0.923880 0.441065 -0.382683
v 0.853553 0.106308 -0.353553
v 0.653281 -0.026939 -0.270598
v 0.353553 -0.016746 -0.146446
v 0.382683 2.230271 0.000000
v 0.707107 1.653340 0.000000
v 0.923879 0.986215 0.000000
v 1.000000 0.441065 0.000001
v 0.923879 0.106309 0.000000
v 0.707107 -0.026939 0.000000
v 0.382683 -0.016746 0.000000
v 0.353553 2.230271 0.146447
v 0.653281 1.653340 0.270598
v 0.853553 0.986215 0.353554
v 0.923879 0.441065 0.382684
v 0.853553 0.106308 0.353554
v 0.653281 -0.026939 0.270598
v 0.353553 -0.016746 0.146447
v 0.270598 2.230271 0.270598
v 0.500000 1.653340 0.500000
v 0.653281 0.986215 0.653282
v 0.707106 0.441065 0.707107
v 0.653281 0.106308 0.653282
v 0.500000 -0.026939 0.500000
v 0.270598 -0.016746 0.270598
v 0.146446 2.230271 0.353554
v 0.270598 1.653340 0.653281
v 0.353553 0.986215 0.853553
v 0.382683 0.441065 0.923880
v 0.353553 0.106309 0.853553
v 0.270598 -0.026939 0.653281
v 0.146446 -0.016746 0.353554
v -0.000000 2.230271 0.382683
v -0.000000 1.653340 0.707107
v -0.000000 -0.026939 0.707107
vn -0.1859 0.3036 0.9345
vn -0.1043 0.8452 0.5241
vn 0.0191 -0.9952 -0.0961
vn -0.1036 -0.8473 0.5208
vn -0.1933 0.1357 0.9717
vn -0.1708 0.4829 0.8588
vn 0.0062 -0.9995 -0.0314
vn -0.1904 -0.2177 0.9573
vn -0.2950 -0.8473 0.4416
vn -0.5504 0.1357 0.8238
vn -0.4865 0.4829 0.7281
vn 0.0178 -0.9995 -0.0266
vn -0.5422 -0.2177 0.8115
vn -0.5293 0.3036 0.7922
vn -0.2969 0.8452 0.4444
vn 0.0544 -0.9952 -0.0815
vn 0.0266 -0.9995 -0.0178
vn -0.8115 -0.2177 0.5422
vn -0.7922 0.3036 0.5293
vn -0.4444 0.8452 0.2969
vn 0.0815 -0.9952 -0.0544
vn -0.4416 -0.8473 0.2950
vn -0.8238 0.1357 0.5504
vn -0.7281 0.4829 0.4865
vn -0.9573 -0.2177 0.1904
vn -0.9345 0.3036 0.1859
vn -0.5241 0.8452 0.1043
vn 0.0961 -0.9952 -0.0191
vn -0.5208 -0.8473 0.1036
vn -0.9717 0.1357 0.1933
vn -0.8588 0.4829 0.1708
vn 0.0314 -0.9995 -0.0062
vn 0.0961 -0.9952 0.0191
vn -0.5208 -0.8473 -0.1036
vn -0.9717 0.1357 -0.1933
vn -0.8588 0.4829 -0.1708
vn 0.0314 -0.9995 0.0062
vn -0.9573 -0.2177 -0.1904
vn -0.9345 0.3036 -0.1859
vn -0.5241 0.8452 -0.1043
vn -0.8238 0.1357 -0.5504
vn -0.7281 0.4829 -0.4865
vn 0.0266 -0.9995 0.0178
vn -0.8115 -0.2177 -0.5422
vn -0.7922 0.3036 -0.5293
vn -0.4444 0.8452 -0.2969
vn 0.0815 -0.9952 0.0544
vn -0.4416 -0.8473 -0.2950
vn 0.0178 -0.9995 0.0266
vn -0.5422 -0.2177 -0.8115
vn -0.5293 0.3036 -0.7922
vn -0.2969 0.8452 -0.4444
vn 0.0544 -0.9952 0.0815
vn -0.2950 -0.8473 -0.4416
vn -0.5504 0.1357 -0.8238
vn -0.4865 0.4829 -0.7281
vn -0.1859 0.3036 -0.9345
vn -0.1043 0.8452 -0.5241
vn 0.0191 -0.9952 0.0961
vn -0.1036 -0.8473 -0.5208
vn -0.1933 0.1357 -0.9717
vn -0.1708 0.4829 -0.8588
vn 0.0062 -0.9995 0.0314
vn -0.1904 -0.2177 -0.9573
vn -0.0191 -0.9952 0.0961
vn 0.1036 -0.8473 -0.5208
vn 0.1933 0.1357 -0.9717
vn 0.1708 0.4829 -0.8588
vn -0.0062 -0.9995 0.0314
vn 0.1904 -0.2177 -0.9573
vn 0.1859 0.3036 -0.9345
vn 0.1043 0.8452 -0.5241
vn 0.4865 0.4829 -0.7281
vn -0.0178 -0.9995 0.0266
vn 0.5422 -0.2177 -0.8115
vn 0.5293 0.3036 -0.7922
vn 0.2969 0.8452 -0.4444
vn -0.0544 -0.9952 0.0815
vn 0.2950 -0.8473 -0.4416
vn 0.5504 0.1357 -0.8238
vn -0.0266 -0.9995 0.0178
vn 0.8115 -0.2177 -0.5422
vn 0.7922 0.3036 -0.5293
vn 0.4444 0.8452 -0.2969
vn -0.0815 -0.9952 0.0544
vn 0.4416 -0.8473 -0.2950
vn 0.8238 0.1357 -0.5504
vn 0.7281 0.4829 -0.4865
vn 0.5241 0.8452 -0.1043
vn -0.0961 -0.9952 0.0191
vn 0.5208 -0.8473 -0.1036
vn 0.9717 0.1357 -0.1933
vn 0.8588 0.4829 -0.1708
vn -0.0314 -0.9995 0.0062
vn 0.9573 -0.2177 -0.1904
vn 0.9345 0.3036 -0.1859
vn 0.5208 -0.8473 0.1036
vn 0.9717 0.1357 0.1933
vn 0.8588 0.4829 0.1708
vn -0.0314 -0.9995 -0.0062
vn 0.9573 -0.2177 0.1904
vn 0.9345 0.3036 0.1859
vn 0.5241 0.8452 0.1043
vn -0.0961 -0.9952 -0.0191
vn -0.0266 -0.9995 -0.0178
vn 0.8115 -0.2177 0.5422
vn 0.7922 0.3036 0.5293
vn 0.4444 0.8452 0.2969
vn -0.0815 -0.9952 -0.0544
vn 0.4416 -0.8473 0.2950
vn 0.8238 0.1357 0.5504
vn 0.7281 0.4829 0.4865
vn 0.5422 -0.2177 0.8115
vn 0.5293 0.3036 0.7922
vn 0.2969 0.8452 0.4444
vn -0.0544 -0.9952 -0.0815
vn 0.2950 -0.8473 0.4416
vn 0.5504 0.1357 0.8238
vn 0.4865 0.4829 0.7281
vn -0.0178 -0.9995 -0.0266
vn -0.0191 -0.9952 -0.0961
vn 0.1036 -0.8473 0.5208
vn 0.1933 0.1357 0.9717
vn 0.1708 0.4829 0.8588
vn -0.0062 -0.9995 -0.0314
vn 0.1904 -0.2177 0.9573
vn 0.1859 0.3036 0.9345
vn 0.1043 0.8452 0.5241
vt 0.750000 0.750000
vt 0.687500 0.625000
vt 0.750000 0.625000
vt 0.750000 0.875000
vt 0.718750 1.000000
vt 0.687500 0.875000
vt 0.718750 0.000000
vt 0.750000 0.125000
vt 0.687500 0.125000
vt 0.750000 0.250000
vt 0.687500 0.375000
vt 0.687500 0.250000
vt 0.687500 0.500000
vt 0.750000 0.500000
vt 0.687500 0.750000
vt 0.750000 0.375000
vt 0.625000 0.250000
vt 0.625000 0.500000
vt 0.625000 0.750000
vt 0.625000 0.125000
vt 0.625000 0.375000
vt 0.625000 0.625000
vt 0.656250 1.000000
vt 0.625000 0.875000
vt 0.656250 0.000000
vt 0.562500 0.125000
vt 0.562500 0.375000
vt 0.562500 0.750000
vt 0.562500 0.625000
vt 0.593750 1.000000
vt 0.562500 0.875000
vt 0.593750 0.000000
vt 0.562500 0.250000
vt 0.562500 0.500000
vt 0.500000 0.375000
vt 0.500000 0.625000
vt 0.531250 1.000000
vt 0.500000 0.875000
vt 0.531250 0.000000
vt 0.500000 0.125000
vt 0.500000 0.250000
vt 0.500000 0.500000
vt 0.500000 0.750000
vt 0.468750 0.000000
vt 0.437500 0.125000
vt 0.437500 0.250000
vt 0.437500 0.500000
vt 0.437500 0.750000
vt 0.437500 0.375000
vt 0.437500 0.625000
vt 0.468750 1.000000
vt 0.437500 0.875000
vt 0.375000 0.500000
vt 0.375000 0.750000
vt 0.375000 0.250000
vt 0.375000 0.125000
vt 0.375000 0.375000
vt 0.375000 0.625000
vt 0.406250 1.000000
vt 0.375000 0.875000
vt 0.406250 0.000000
vt 0.312500 0.125000
vt 0.312500 0.375000
vt 0.312500 0.625000
vt 0.343750 1.000000
vt 0.312500 0.875000
vt 0.343750 0.000000
vt 0.312500 0.250000
vt 0.312500 0.500000
vt 0.312500 0.750000
vt 0.250000 0.625000
vt 0.281250 1.000000
vt 0.250000 0.875000
vt 0.281250 0.000000
vt 0.250000 0.125000
vt 0.250000 0.250000
vt 0.250000 0.500000
vt 0.250000 0.750000
vt 0.250000 0.375000
vt 0.218750 0.000000
vt 0.187500 0.125000
vt 0.187500 0.250000
vt 0.187500 0.625000
vt 0.187500 0.500000
vt 0.187500 0.875000
vt 0.187500 0.750000
vt 0.187500 0.375000
vt 0.218750 1.000000
vt 0.125000 0.875000
vt 0.125000 0.750000
vt 0.125000 0.125000
vt 0.125000 0.375000
vt 0.125000 0.625000
vt 0.156250 1.000000
vt 0.156250 0.000000
vt 0.125000 0.250000
vt 0.125000 0.500000
vt 0.062500 0.250000
vt 0.062500 0.125000
vt 0.062500 0.375000
vt 0.062500 0.625000
vt 0.093750 1.000000
vt 0.062500 0.875000
vt 0.093750 0.000000
vt 0.062500 0.500000
vt 0.062500 0.750000
vt 0.031250 1.000000
vt 0.000000 0.875000
vt 0.031250 0.000000
vt 0.000000 0.125000
vt 0.000000 0.375000
vt 0.000000 0.250000
vt 0.000000 0.500000
vt 0.000000 0.750000
vt 0.000000 0.625000
vt 1.000000 0.250000
vt 0.937500 0.375000
vt 0.937500 0.250000
vt 1.000000 0.625000
vt 0.937500 0.500000
vt 1.000000 0.500000
vt 1.000000 0.875000
vt 0.937500 0.750000
vt 1.000000 0.750000
vt 0.937500 0.125000
vt 1.000000 0.125000
vt 1.000000 0.375000
vt 0.937500 0.625000
vt 0.968750 1.000000
vt 0.937500 0.875000
vt 0.968750 0.000000
vt 0.875000 0.125000
vt 0.875000 0.375000
vt 0.875000 0.625000
vt 0.906250 1.000000
vt 0.875000 0.875000
vt 0.906250 0.000000
vt 0.875000 0.250000
vt 0.875000 0.500000
vt 0.875000 0.750000
vt 0.812500 0.500000
vt 0.812500 0.375000
vt 0.812500 0.625000
vt 0.843750 1.000000
vt 0.812500 0.875000
vt 0.843750 0.000000
vt 0.812500 0.125000
vt 0.812500 0.250000
vt 0.812500 0.750000
vt 0.781250 0.000000
vt 0.781250 1.000000
s 0
f 113/1/1 7/2/1 1/3/1
f 112/4/2 62/5/2 5/6/2
f 61/7/3 4/8/3 11/9/3
f 114/10/4 9/11/4 10/12/4
f 1/3/5 8/13/5 2/14/5
f 113/1/6 5/6/6 6/15/6
f 114/10/7 11/9/7 4/8/7
f 2/14/8 9/11/8 3/16/8
f 9/11/9 17/17/9 10/12/9
f 7/2/10 15/18/10 8/13/10
f 5/6/11 13/19/11 6/15/11
f 10/12/12 18/20/12 11/9/12
f 8/13/13 16/21/13 9/11/13
f 6/15/14 14/22/14 7/2/14
f 5/6/15 62/23/15 12/24/15
f 61/25/16 11/9/16 18/20/16
f 17/17/17 25/26/17 18/20/17
f 15/18/18 23/27/18 16/21/18
f 14/22/19 20/28/19 21/29/19
f 12/24/20 62/30/20 19/31/20
f 61/32/21 18/20/21 25/26/21
f 17/17/22 23/27/22 24/33/22
f 15/18/23 21/29/23 22/34/23
f 12/24/24 20/28/24 13/19/24
f 22/34/25 30/35/25 23/27/25
f 20/28/26 28/36/26 21/29/26
f 19/31/27 62/37/27 26/38/27
f 61/39/28 25/26/28 32/40/28
f 23/27/29 31/41/29 24/33/29
f 21/29/30 29/42/30 22/34/30
f 19/31/31 27/43/31 20/28/31
f 24/33/32 32/40/32 25/26/32
f 61/44/33 32/40/33 39/45/33
f 30/35/34 38/46/34 31/41/34
f 28/36/35 36/47/35 29/42/35
f 26/38/36 34/48/36 27/43/36
f 31/41/37 39/45/37 32/40/37
f 29/42/38 37/49/38 30/35/38
f 27/43/39 35/50/39 28/36/39
f 26/38/40 62/51/40 33/52/40
f 35/50/41 43/53/41 36/47/41
f 33/52/42 41/54/42 34/48/42
f 39/45/43 45/55/43 46/56/43
f 36/47/44 44/57/44 37/49/44
f 34/48/45 42/58/45 35/50/45
f 33/52/46 62/59/46 40/60/46
f 61/61/47 39/45/47 46/56/47
f 37/49/48 45/55/48 38/46/48
f 45/55/49 53/62/49 46/56/49
f 43/53/50 51/63/50 44/57/50
f 41/54/51 49/64/51 42/58/51
f 40/60/52 62/65/52 47/66/52
f 61/67/53 46/56/53 53/62/53
f 45/55/54 51/63/54 52/68/54
f 42/58/55 50/69/55 43/53/55
f 41/54/56 47/66/56 48/70/56
f 48/70/57 56/71/57 49/64/57
f 47/66/58 62/72/58 54/73/58
f 61/74/59 53/62/59 60/75/59
f 51/63/60 59/76/60 52/68/60
f 50/69/61 56/71/61 57/77/61
f 48/70/62 54/73/62 55/78/62
f 52/68/63 60/75/63 53/62/63
f 50/69/64 58/79/64 51/63/64
f 61/80/65 60/75/65 69/81/65
f 58/79/66 68/82/66 59/76/66
f 57/77/67 65/83/67 66/84/67
f 55/78/68 63/85/68 64/86/68
f 59/76/69 69/81/69 60/75/69
f 57/77/70 67/87/70 58/79/70
f 55/78/71 65/83/71 56/71/71
f 54/73/72 62/88/72 63/85/72
f 64/86/73 70/89/73 71/90/73
f 68/82/74 76/91/74 69/81/74
f 66/84/75 74/92/75 67/87/75
f 65/83/76 71/90/76 72/93/76
f 63/85/77 62/94/77 70/89/77
f 61/95/78 69/81/78 76/91/78
f 68/82/79 74/92/79 75/96/79
f 65/83/80 73/97/80 66/84/80
f 76/91/81 82/98/81 83/99/81
f 73/97/82 81/100/82 74/92/82
f 71/90/83 79/101/83 72/93/83
f 70/89/84 62/102/84 77/103/84
f 61/104/85 76/91/85 83/99/85
f 75/96/86 81/100/86 82/98/86
f 72/93/87 80/105/87 73/97/87
f 70/89/88 78/106/88 71/90/88
f 77/103/89 62/107/89 84/108/89
f 61/109/90 83/99/90 90/110/90
f 82/98/91 88/111/91 89/112/91
f 79/101/92 87/113/92 80/105/92
f 77/103/93 85/114/93 78/106/93
f 83/99/94 89/112/94 90/110/94
f 80/105/95 88/111/95 81/100/95
f 78/106/96 86/115/96 79/101/96
f 89/116/97 95/117/97 96/118/97
f 86/119/98 94/120/98 87/121/98
f 84/122/99 92/123/99 85/124/99
f 89/116/100 97/125/100 90/126/100
f 87/121/101 95/117/101 88/127/101
f 85/124/102 93/128/102 86/119/102
f 84/122/103 62/129/103 91/130/103
f 61/131/104 90/126/104 97/125/104
f 96/118/105 104/132/105 97/125/105
f 94/120/106 102/133/106 95/117/106
f 92/123/107 100/134/107 93/128/107
f 91/130/108 62/135/108 98/136/108
f 61/137/109 97/125/109 104/132/109
f 95/117/110 103/138/110 96/118/110
f 93/128/111 101/139/111 94/120/111
f 91/130/112 99/140/112 92/123/112
f 102/133/113 108/141/113 109/142/113
f 99/140/114 107/143/114 100/134/114
f 98/136/115 62/144/115 105/145/115
f 61/146/116 104/132/116 111/147/116
f 103/138/117 109/142/117 110/148/117
f 101/139/118 107/143/118 108/141/118
f 99/140/119 105/145/119 106/149/119
f 103/138/120 111/147/120 104/132/120
f 61/150/121 111/147/121 4/8/121
f 110/148/122 3/16/122 114/10/122
f 107/143/123 2/14/123 108/141/123
f 105/145/124 113/1/124 106/149/124
f 110/148/125 4/8/125 111/147/125
f 109/142/126 2/14/126 3/16/126
f 106/149/127 1/3/127 107/143/127
f 105/145/128 62/151/128 112/4/128
f 113/1/1 6/15/1 7/2/1
f 114/10/4 3/16/4 9/11/4
f 1/3/5 7/2/5 8/13/5
f 113/1/6 112/4/6 5/6/6
f 114/10/7 10/12/7 11/9/7
f 2/14/8 8/13/8 9/11/8
f 9/11/9 16/21/9 17/17/9
f 7/2/10 14/22/10 15/18/10
f 5/6/11 12/24/11 13/19/11
f 10/12/12 17/17/12 18/20/12
f 8/13/13 15/18/13 16/21/13
f 6/15/14 13/19/14 14/22/14
f 17/17/17 24/33/17 25/26/17
f 15/18/18 22/34/18 23/27/18
f 14/22/19 13/19/19 20/28/19
f 17/17/22 16/21/22 23/27/22
f 15/18/23 14/22/23 21/29/23
f 12/24/24 19/31/24 20/28/24
f 22/34/25 29/42/25 30/35/25
f 20/28/26 27/43/26 28/36/26
f 23/27/29 30/35/29 31/41/29
f 21/29/30 28/36/30 29/42/30
f 19/31/31 26/38/31 27/43/31
f 24/33/32 31/41/32 32/40/32
f 30/35/34 37/49/34 38/46/34
f 28/36/35 35/50/35 36/47/35
f 26/38/36 33/52/36 34/48/36
f 31/41/37 38/46/37 39/45/37
f 29/42/38 36/47/38 37/49/38
f 27/43/39 34/48/39 35/50/39
f 35/50/41 42/58/41 43/53/41
f 33/52/42 40/60/42 41/54/42
f 39/45/43 38/46/43 45/55/43
f 36/47/44 43/53/44 44/57/44
f 34/48/45 41/54/45 42/58/45
f 37/49/48 44/57/48 45/55/48
f 45/55/49 52/68/49 53/62/49
f 43/53/50 50/69/50 51/63/50
f 41/54/51 48/70/51 49/64/51
f 45/55/54 44/57/54 51/63/54
f 42/58/55 49/64/55 50/69/55
f 41/54/56 40/60/56 47/66/56
f 48/70/57 55/78/57 56/71/57
f 51/63/60 58/79/60 59/76/60
f 50/69/61 49/64/61 56/71/61
f 48/70/62 47/66/62 54/73/62
f 52/68/63 59/76/63 60/75/63
f 50/69/64 57/77/64 58/79/64
f 58/79/66 67/87/66 68/82/66
f 57/77/67 56/71/67 65/83/67
f 55/78/68 54/73/68 63/85/68
f 59/76/69 68/82/69 69/81/69
f 57/77/70 66/84/70 67/87/70
f 55/78/71 64/86/71 65/83/71
f 64/86/73 63/85/73 70/89/73
f 68/82/74 75/96/74 76/91/74
f 66/84/75 73/97/75 74/92/75
f 65/83/76 64/86/76 71/90/76
f 68/82/79 67/87/79 74/92/79
f 65/83/80 72/93/80 73/97/80
f 76/91/81 75/96/81 82/98/81
f 73/97/82 80/105/82 81/100/82
f 71/90/83 78/106/83 79/101/83
f 75/96/86 74/92/86 81/100/86
f 72/93/87 79/101/87 80/105/87
f 70/89/88 77/103/88 78/106/88
f 82/98/91 81/100/91 88/111/91
f 79/101/92 86/115/92 87/113/92
f 77/103/93 84/108/93 85/114/93
f 83/99/94 82/98/94 89/112/94
f 80/105/95 87/113/95 88/111/95
f 78/106/96 85/114/96 86/115/96
f 89/116/97 88/127/97 95/117/97
f 86/119/98 93/128/98 94/120/98
f 84/122/99 91/130/99 92/123/99
f 89/116/100 96/118/100 97/125/100
f 87/121/101 94/120/101 95/117/101
f 85/124/102 92/123/102 93/128/102
f 96/118/105 103/138/105 104/132/105
f 94/120/106 101/139/106 102/133/106
f 92/123/107 99/140/107 100/134/107
f 95/117/110 102/133/110 103/138/110
f 93/128/111 100/134/111 101/139/111
f 91/130/112 98/136/112 99/140/112
f 102/133/113 101/139/113 108/141/113
f 99/140/114 106/149/114 107/143/114
f 103/138/117 102/133/117 109/142/117
f 101/139/118 100/134/118 107/143/118
f 99/140/119 98/136/119 105/145/119
f 103/138/120 110/148/120 111/147/120
f 110/148/122 109/142/122 3/16/122
f 107/143/123 1/3/123 2/14/123
f 105/145/124 112/4/124 113/1/124
f 110/148/125 114/10/125 4/8/125
f 109/142/126 108/141/126 2/14/126
f 106/149/127 113/1/127 1/3/127
